<svg width="175" height="68" viewBox="0 0 175 68" fill="none" xmlns="http://www.w3.org/2000/svg">
<g clip-path="url(#clip0_183_346)">
<path d="M30.2264 7.22363H63.3284V60.0079H7.15869V8.09058V8.09191L14.4434 18.3891L30.2264 7.22363Z" fill="#D8D1C1"/>
<path d="M34.2677 10.2229C34.2677 15.6529 32.4979 20.6834 29.4855 24.8083C28.0702 26.7454 26.3815 28.4832 24.4723 29.9662C21.1134 32.579 17.0734 34.4098 12.6484 35.1719C12.2806 35.2356 11.9102 35.2914 11.5385 35.3392L8.03352 33.0994L7.86358 32.9919V10.3012L14.2761 19.3664L30.4441 7.92874H34.1614C34.2305 8.6855 34.2677 9.45022 34.2677 10.2229ZM6.45363 32.0904L3.03629 29.9065V35.1175C2.52515 35.0219 2.01799 34.9143 1.5188 34.7909V1.51758H1.65156L6.45496 8.30845C6.45363 8.30845 6.45363 32.0904 6.45363 32.0904ZM32.4408 6.52012L33.8202 5.54431C33.868 5.78726 33.9105 6.03155 33.9504 6.27716L33.9889 6.52012H32.4408Z" fill="#66C0FF"/>
<path d="M49.6576 14.0223C49.6576 17.4489 52.435 20.2277 55.863 20.2277C59.2896 20.2277 62.0684 17.4502 62.0684 14.0223C62.0684 10.5956 59.2909 7.81689 55.863 7.81689C52.435 7.81689 49.6576 10.5943 49.6576 14.0223Z" fill="#CB6362"/>
<path d="M35.509 2.62891L35.2209 2.22266H3.86743L14.6107 17.4122L30.8371 5.93473V5.93208L33.5441 4.0163L33.5455 4.01762L35.509 2.62891Z" fill="#F2EFEA"/>
<path d="M20.4788 41.0572C21.2382 37.5017 22.7066 34.2105 24.7339 31.3375C26.1638 29.3076 27.8738 27.486 29.8042 25.93C34.3606 22.2578 40.1544 20.0605 46.462 20.0605C47.24 20.0605 48.0087 20.0937 48.7682 20.1588C54.2725 20.6314 59.2977 22.7835 63.3284 26.1013C64.8538 27.3559 66.2372 28.7765 67.4507 30.3378V64.1952H45.8155L49.3616 59.6215L47.8388 58.5461L35.5303 50.6772L35.7812 50.6626L36.1197 50.6414L36.4596 50.6161L36.7995 50.5883L37.1394 50.5564L37.4792 50.5219L37.8191 50.4834L38.159 50.4422L38.4989 50.3958L38.8374 50.3466L39.1746 50.2935L39.5105 50.2364L39.8451 50.1754L39.9964 50.1462L40.1491 50.1143L40.3031 50.0798L40.4571 50.0426L40.6125 50.0041L40.7678 49.9629L40.9245 49.9191L41.0811 49.874L41.2378 49.8262L41.3958 49.7771L41.5538 49.7253L41.7118 49.6722L41.8711 49.6178L42.0304 49.5607L42.1897 49.5023L42.349 49.4425L42.5083 49.3814L42.6677 49.319L42.827 49.2553L42.9863 49.1889L43.1443 49.1226L43.3023 49.0535L43.4603 48.9845L43.6169 48.9141L43.7736 48.8424L43.9302 48.7694L44.0869 48.6951L44.2409 48.6207L44.3949 48.545L44.5489 48.468L44.7003 48.391L44.8516 48.3127L45.0016 48.2344L45.1503 48.1547L45.299 48.075L45.4451 47.9954L45.5911 47.9144L45.7345 47.8334L45.8766 47.7511L46.0173 47.6688L46.1567 47.5865L46.2948 47.5042L46.4315 47.4219L46.5669 47.3395L46.6997 47.2559L46.8311 47.1736L46.9599 47.0913L47.0874 47.009L47.2122 46.9266L47.3356 46.8443L47.4564 46.762L47.5746 46.681L47.6914 46.6L47.8056 46.5191L47.9171 46.4394L48.026 46.3597L48.1322 46.2814L48.2358 46.2031L48.3367 46.1261L48.4349 46.0491L48.5305 45.9734L48.6234 45.899L48.7137 45.8247L48.8 45.753C50.3879 44.4041 54.4066 39.4919 54.0973 39.3299L54.08 39.3206L54.0561 39.3073L54.0269 39.2914L53.9911 39.2715L53.9499 39.2489L53.9035 39.2237L53.8517 39.1958L53.7946 39.1653L53.7322 39.1321L53.6645 39.0962L53.5915 39.0577L53.5145 39.0166L53.4321 38.9741L53.3459 38.9289L53.2556 38.8812L53.16 38.832L53.0604 38.7803L52.9569 38.7271L52.8493 38.6727L52.7378 38.6156L52.6236 38.5572L52.5055 38.4975L52.3833 38.4364L52.2585 38.374L52.1297 38.3103L51.9983 38.2465L51.8642 38.1815L51.7275 38.1151L51.5881 38.0487L51.446 37.981L51.3013 37.9133L51.1539 37.8443L51.0052 37.7752L50.8579 37.7049L50.7052 37.6358L50.5498 37.5655L50.3932 37.4964L50.2352 37.4261L50.0759 37.357L49.9152 37.2867L49.7533 37.2176L49.59 37.1486L49.4253 37.0809L49.2607 37.0132L49.0948 36.9468L48.9275 36.8804L48.7602 36.8153L48.5929 36.7516L48.4256 36.6892L48.2583 36.6282L48.0911 36.5671L47.9238 36.5073L47.7565 36.4502L47.5892 36.3945L47.4233 36.3401L47.2586 36.2869L47.094 36.2365L46.9294 36.1874L46.7661 36.1409L46.6041 36.0958L46.4435 36.0533L46.2841 36.0135L46.1275 35.9763L45.9708 35.9404C45.8248 35.9086 45.6801 35.878 45.5354 35.8502C45.392 35.8223 45.2486 35.7944 45.1065 35.7692C44.9645 35.7439 44.8237 35.72 44.6843 35.6988C44.5436 35.6762 44.4055 35.6563 44.2661 35.6364C44.1281 35.6178 43.9913 35.6006 43.8546 35.5846C43.7178 35.5687 43.5824 35.5541 43.4483 35.5421C43.3142 35.5289 43.1801 35.5182 43.0474 35.509C42.9146 35.4997 42.7832 35.4917 42.6517 35.4837C42.5203 35.4771 42.3915 35.4718 42.2614 35.4678C42.1326 35.4638 42.0038 35.4612 41.8764 35.4612C41.7489 35.4598 41.6228 35.4598 41.4967 35.4625C41.3706 35.4638 41.2458 35.4678 41.1223 35.4718C40.9988 35.4758 40.8753 35.4824 40.7532 35.489C40.6311 35.497 40.5102 35.505 40.3894 35.5143C40.2686 35.5236 40.1491 35.5355 40.031 35.5475C39.9128 35.5594 39.7946 35.5727 39.6778 35.5886C39.561 35.6045 39.4455 35.6205 39.33 35.6377C39.2145 35.655 39.1003 35.6736 38.9874 35.6948C38.7604 35.7346 38.5374 35.7798 38.317 35.8289C38.2068 35.8528 38.0979 35.8794 37.9891 35.9059C37.8802 35.9325 37.7727 35.9603 37.6651 35.9896C37.5589 36.0188 37.4527 36.0493 37.3465 36.0798C37.2416 36.1104 37.1367 36.1436 37.0332 36.1768C36.9296 36.2099 36.826 36.2445 36.7251 36.2803C36.6229 36.3162 36.522 36.352 36.4211 36.3892C36.3202 36.4263 36.2206 36.4649 36.1224 36.5047C36.0228 36.5445 35.9259 36.5843 35.8277 36.6255C35.7307 36.6667 35.6338 36.7091 35.5369 36.7529C35.3444 36.8406 35.1572 36.9309 34.97 37.0238C34.8771 37.0703 34.7855 37.1194 34.6939 37.1672C34.6023 37.2163 34.512 37.2654 34.4217 37.3159C34.3314 37.3663 34.2425 37.4168 34.1548 37.4685C34.0672 37.5203 33.9796 37.5734 33.892 37.6265C33.8043 37.6796 33.7194 37.7341 33.6331 37.7885C33.5481 37.8429 33.4631 37.8987 33.3782 37.9558L33.1272 38.1271C33.0449 38.1855 32.9626 38.2439 32.8803 38.3023L32.6387 38.4815C32.559 38.5413 32.4794 38.6023 32.401 38.6647L32.1674 38.8519L31.9377 39.0431L31.712 39.237L31.4903 39.4334L31.2712 39.6339L31.0561 39.8371L30.845 40.0428L30.6286 40.2539L30.4255 40.465L30.225 40.6788L30.0285 40.8939L29.836 41.1116L29.6475 41.3306L29.4616 41.551L29.2798 41.7727L29.1005 41.9958L28.9253 42.2202L28.7527 42.4459L28.5841 42.6729L28.4181 42.8999L28.2561 43.1283L28.0968 43.3566L27.9402 43.585C27.5923 44.0988 27.2538 44.6431 26.9338 45.1888L20.9501 41.3638L20.4749 41.0598L20.4788 41.0572Z" fill="#EB8E51"/>
<path d="M49.3617 59.6228L45.8155 64.1965H3.03638V29.9062L8.03228 33.0992L13.53 36.6135L20.9542 41.3598L26.9378 45.1847C25.5186 47.601 24.4565 50.0372 24.4565 50.0372C24.4565 50.0372 29.7591 50.9918 35.5317 50.6785L47.8402 58.5474L49.3617 59.6228Z" fill="#D89795"/>
<path d="M48.8027 45.7515C46.9944 47.2863 43.0713 49.5659 39.8491 50.1752C32.7236 51.5254 24.4578 50.0358 24.4578 50.0358C24.4578 50.0358 26.0523 46.3782 27.9455 43.5809C31.2473 38.7018 36.6216 33.8944 45.9655 35.935C49.2819 36.6599 53.7919 39.1625 54.1013 39.3258C54.408 39.4904 50.3905 44.4027 48.8027 45.7515ZM32.1182 44.3137C31.396 40.5074 33.8774 36.8418 37.6598 36.1248C41.4422 35.4079 45.0946 37.9118 45.8168 41.7182C46.539 45.5232 44.0577 49.1901 40.2752 49.9071C36.4928 50.624 32.8405 48.1201 32.1182 44.3137Z" fill="#FFEEC0"/>
<path d="M32.1182 44.3139C31.3959 40.5089 33.8773 36.842 37.6597 36.1264C41.4422 35.4095 45.0945 37.9134 45.8167 41.7197C46.539 45.5247 44.0576 49.1917 40.2752 49.9073C36.4927 50.6242 32.8404 48.1203 32.1182 44.3139Z" fill="#66C0FF"/>
<path d="M34.9712 10.2228C34.9712 12.9644 34.5317 15.609 33.7166 18.0944C32.8735 20.666 31.6269 23.0664 30.051 25.2238C29.3248 26.2169 28.5282 27.1608 27.6652 28.0477C26.7996 28.9372 25.8769 29.7643 24.9024 30.5224C23.1605 31.8779 21.2368 33.029 19.175 33.9371C17.1596 34.8239 15.0102 35.4785 12.7651 35.8661L12.4438 35.9206L10.5958 34.739C11.2503 34.6752 11.8955 34.5889 12.5288 34.4788C14.6583 34.1123 16.6963 33.4923 18.6081 32.6493C20.5623 31.789 22.3852 30.6976 24.0394 29.4098C24.9741 28.6836 25.849 27.9016 26.6589 27.0679C27.4727 26.2301 28.2281 25.3353 28.9185 24.3927C30.4081 22.3548 31.5844 20.0885 32.3797 17.6602C33.1484 15.3169 33.5626 12.817 33.5626 10.2228C33.5626 9.5696 33.5373 8.92703 33.4856 8.2964C33.4325 7.63922 33.3555 7.00328 33.2572 6.38725C33.2081 6.0819 33.1537 5.78716 33.0966 5.50172L33.0408 5.23486L33.9489 4.59229L34.2822 4.35729C34.3499 4.64539 34.4149 4.93614 34.4733 5.2269C34.5371 5.54686 34.5955 5.86151 34.6446 6.16819C34.7535 6.84662 34.8371 7.51973 34.8902 8.18753C34.9433 8.8633 34.9712 9.54172 34.9712 10.2228ZM3.03619 35.8303C2.46796 35.7281 1.90769 35.6086 1.35274 35.4732L0.813721 35.3404V0.8125H33.163L33.3355 1.27054L33.4285 1.5188H2.51044L3.00831 2.22378H2.22367V34.2345C2.49318 34.2942 2.76402 34.35 3.03752 34.4018L3.03619 35.8303Z" fill="black"/>
<path d="M50.3614 14.0227C50.3614 15.5415 50.9774 16.9169 51.9731 17.9126C52.9675 18.9084 54.343 19.5244 55.8631 19.5244C57.3819 19.5244 58.7574 18.9084 59.7518 17.9126C60.7475 16.9182 61.3635 15.5428 61.3635 14.0227C61.3635 12.5038 60.7475 11.1284 59.7518 10.1327C58.7574 9.13828 57.3819 8.52226 55.8631 8.52226C54.3443 8.52226 52.9689 9.13828 51.9731 10.1327C50.9774 11.1284 50.3614 12.5038 50.3614 14.0227ZM50.9761 18.9084C49.7254 17.6577 48.9528 15.9305 48.9528 14.0213C48.9528 12.1135 49.7268 10.3863 50.9761 9.13563C52.2267 7.88499 53.954 7.1123 55.8631 7.1123C57.7709 7.1123 59.4982 7.88632 60.7488 9.13563C61.9995 10.3863 62.7721 12.1135 62.7721 14.0213C62.7721 15.9292 61.9981 17.6577 60.7488 18.9084C59.4982 20.159 57.7709 20.9317 55.8631 20.9317C53.9553 20.9317 52.2267 20.159 50.9761 18.9084Z" fill="black"/>
<path d="M69.673 32.5071V60.7526L69.6704 60.7911C69.6545 61.0606 69.6465 61.2212 69.6372 61.3765C69.3995 65.7126 69.361 66.4202 64.9427 66.4202H27.6971L27.4887 66.2198C26.8288 65.5798 26.1982 64.9054 25.6021 64.1978H27.4767C27.7329 64.4739 27.9958 64.7448 28.264 65.0116H64.9413C68.0294 65.0116 68.0573 64.4925 68.2326 61.3075L68.2631 60.7552H68.2618V32.7075C67.5515 31.5963 66.7522 30.5382 65.8773 29.5438C64.952 28.4936 63.9496 27.5231 62.8808 26.6442C60.8934 25.0086 58.6523 23.6623 56.2267 22.6719C53.8741 21.712 51.3476 21.088 48.7083 20.861C48.31 20.8265 47.9369 20.8026 47.5891 20.7867C47.2479 20.7721 46.8708 20.7641 46.4593 20.7641C43.4416 20.7641 40.5486 21.2792 37.8615 22.2258C35.0708 23.2083 32.4992 24.6567 30.2422 26.4769C29.3022 27.235 28.4153 28.0568 27.5882 28.9384C26.7664 29.8159 26.003 30.7519 25.306 31.7397C24.2505 33.2359 23.3531 34.8437 22.6335 36.5391C21.9697 38.1044 21.4559 39.7507 21.1094 41.4593L20.9514 41.3584L19.8441 40.6508C20.2039 39.0417 20.7071 37.4857 21.339 35.9948C22.1011 34.1958 23.0477 32.5004 24.155 30.9311C24.8878 29.8916 25.6937 28.9038 26.5633 27.9758C27.4329 27.0478 28.3676 26.1809 29.3606 25.3816C31.7424 23.4632 34.4521 21.9351 37.3928 20.8995C40.2313 19.8998 43.2836 19.3555 46.458 19.3555C46.8244 19.3555 47.2213 19.3648 47.6475 19.3833C48.0684 19.4019 48.46 19.4258 48.8225 19.4577C51.6065 19.6967 54.2724 20.3552 56.7538 21.3682C59.3068 22.4104 61.67 23.8309 63.7717 25.5609C64.9108 26.4982 65.9689 27.5191 66.9328 28.6144C67.8953 29.7084 68.7756 30.8847 69.5602 32.134L69.6704 32.3092L69.673 32.5071Z" fill="black"/>
<path d="M68.9682 67.2329H0V0H70.4856V67.2329H68.9682ZM3.03631 64.1966H67.4493V3.03631H3.03631V64.1966Z" fill="black"/>
<path d="M32.381 8.1369C32.3226 7.36422 32.2602 6.59153 32.2124 5.81885L31.2405 6.50524L29.6447 7.63506C29.6075 8.03202 29.585 8.425 29.5597 8.80471C29.4336 10.7019 29.2066 12.5898 29.1017 14.4897C28.9835 16.6006 28.9238 18.7142 28.8428 20.8265C28.8136 21.5832 28.7738 22.3387 28.7286 23.0954C28.6463 21.6231 28.556 20.152 28.4472 18.681C28.2945 16.6125 28.1139 14.5467 27.9068 12.4836C27.8073 11.4879 27.6904 10.4948 27.5882 9.49906C27.5749 9.37161 27.5643 9.24283 27.555 9.11405L24.9781 10.9369C24.37 13.7966 24.4497 16.8104 24.2957 19.7099C24.2001 21.4996 24.1178 23.2906 24.0394 25.0816C23.9067 23.6955 23.7819 22.3094 23.6703 20.9221C23.527 19.1297 23.3358 17.3175 23.3278 15.5199C23.3225 14.3635 23.43 13.1965 23.4207 12.0375L21.2394 13.5802C21.2248 13.6904 21.2115 13.8006 21.1956 13.9108C21.0469 14.9742 20.8889 16.035 20.7495 17.0998C20.4747 19.1935 20.2331 21.2925 20.0047 23.3915C19.714 26.0653 19.4484 28.7419 19.1882 31.4197C19.2028 30.9165 19.2148 30.412 19.2241 29.9102C19.2652 27.7607 19.2759 25.6139 19.3807 23.4645C19.4856 21.3323 19.629 19.2041 19.7419 17.0732C19.7857 16.2355 19.8255 15.3978 19.8547 14.56L16.8821 16.663C16.2356 19.8573 15.8266 23.1047 15.3089 26.3229C15.3248 26.1437 15.3407 25.9658 15.3606 25.7865C15.5797 23.6928 15.909 21.6138 16.1745 19.5267C16.282 18.6757 16.3776 17.822 16.452 16.967L14.4419 18.3889L13.8578 17.5631C13.6958 18.4341 13.5551 19.309 13.3679 20.16C12.7333 23.0396 12.1146 25.9219 11.5078 28.8082C11.1056 30.7174 10.6847 32.6265 10.2864 34.541L11.4016 35.2539C12.3721 30.2434 13.4781 25.2541 14.568 20.2702C14.6782 19.7683 14.7831 19.2665 14.8867 18.7646C14.6464 21.2951 14.2229 23.8137 13.9268 26.3362C13.5883 29.2171 13.5471 32.1048 13.5763 34.995C14.0928 34.8875 14.6039 34.7653 15.1084 34.6286C15.1084 34.6047 15.1071 34.5808 15.1071 34.5569C15.4828 32.1897 15.9581 29.8385 16.4002 27.4833C16.9286 24.6607 17.2977 21.8129 17.7517 18.9784C17.9296 17.8672 18.1208 16.7573 18.3385 15.6513C18.2443 18.4288 18.0478 21.2048 17.9004 23.9809C17.7252 27.2522 17.6548 30.5381 17.6097 33.8174C18.5934 33.4443 19.548 33.0155 20.4694 32.5349C20.9075 27.9891 21.3443 23.4419 21.882 18.9067C21.9391 19.7856 22.0188 20.6645 22.0865 21.5381C22.3307 24.7231 22.6666 27.8988 22.9242 31.0825C23.4539 30.7293 23.9704 30.3563 24.4696 29.9673C24.755 29.7455 25.0338 29.5185 25.3086 29.2862C25.3551 28.2081 25.4215 27.1288 25.4653 26.056C25.6339 21.9271 25.7892 17.7915 26.0242 13.6665C26.0601 13.0492 26.1026 12.4265 26.165 11.8038C26.2552 12.6283 26.3415 13.4528 26.4225 14.2772C26.6257 16.3404 26.8022 18.4075 26.9509 20.476C27.0996 22.5458 27.2125 24.6169 27.32 26.6893C27.332 26.911 27.3439 27.1328 27.3559 27.3545C28.1192 26.5513 28.8295 25.7016 29.4827 24.8094C29.7045 24.5054 29.9195 24.1947 30.128 23.8814C30.189 22.9719 30.2528 22.0625 30.2952 21.1504C30.4718 17.356 30.5103 13.5497 30.8728 9.76592C30.8741 9.78583 30.8754 9.80442 30.8768 9.82301C31.0042 11.4852 31.1556 13.1448 31.3919 14.795C31.6441 16.5621 31.9681 18.3225 32.1978 20.091C32.6877 18.9757 33.0966 17.8207 33.4179 16.6298C33.2386 15.4947 33.0474 14.3609 32.8895 13.2231C32.6545 11.5357 32.5084 9.83761 32.381 8.1369ZM10.1961 34.4826C10.4895 28.8189 10.9675 23.1565 11.3963 17.5047C11.4733 16.497 11.5742 15.5146 11.711 14.5268L10.0249 12.1424C8.81008 15.3088 8.37993 18.7434 7.93384 22.0851C7.4851 25.452 6.98989 28.8096 6.59558 32.1818L7.75992 32.9266C7.92986 31.3586 8.12104 29.7933 8.32682 28.2307C8.61226 26.0667 8.94285 23.9106 9.24422 21.7492C9.51107 19.8334 9.75536 17.9123 10.1098 16.0111C10.2054 15.504 10.3077 14.9981 10.4205 14.495C10.236 15.5942 10.0501 16.6736 9.9638 17.7902C9.71022 21.0734 9.47523 24.358 9.24289 27.6439C9.10349 29.6327 8.95878 31.6228 8.83132 33.613L10.1961 34.4826Z" fill="black"/>
<path d="M49.9178 60.053L45.6813 65.5176H1.8042V28.2866C8.31228 32.4474 14.8217 36.6083 21.3298 40.7691L27.2975 44.5847C27.0506 44.9857 26.8129 45.3932 26.5859 45.7955L20.5757 41.9533C14.7885 38.2532 9.00133 34.5531 3.21282 30.8543V64.109H44.9949L48.3552 59.7755L47.4338 59.125L47.4351 59.1237L34.3035 50.729C35.0934 50.7091 35.898 50.6679 36.7065 50.5989L48.2171 57.9567L48.245 57.9739L50.3679 59.4742L49.9178 60.053Z" fill="black"/>
<path d="M7.15859 6.52002H64.032V60.7129H6.45361V6.52002H7.15859ZM62.622 7.92997H7.86356V59.3043H62.6233C62.622 59.3043 62.622 7.92997 62.622 7.92997Z" fill="black"/>
<path d="M69.6732 1.51748V50.9255L48.1947 20.5651H48.192L38.5348 6.91167L38.5361 6.91034L36.3176 3.77446L34.354 5.1645V5.16715L31.647 7.08161L31.6456 7.08028L14.2762 19.3676L1.15112 0.8125H34.2226H40.5076H69.6719C69.6732 0.8125 69.6732 1.51748 69.6732 1.51748ZM35.5091 2.62871L35.221 2.22245H3.86747L14.6107 17.4106L30.8371 5.9332V5.93055L33.5442 4.01476L33.5455 4.01609L35.5091 2.62871ZM38.5148 2.22245L37.4647 2.9646L39.6832 6.10048H39.6858L49.3431 19.7539L49.3417 19.7552L68.2632 46.5032V2.22245H38.5148Z" fill="black"/>
<path d="M36.1438 43.5454L36.1451 43.544C36.0044 42.7952 36.1783 42.0597 36.5726 41.4769C36.9695 40.8901 37.5896 40.4573 38.341 40.3139L38.3463 40.3112V40.3126C39.0924 40.1718 39.8266 40.3484 40.4081 40.748C40.9923 41.1476 41.4238 41.7716 41.5672 42.5244L41.5698 42.535C41.7079 43.2825 41.5353 44.0153 41.141 44.5969C40.744 45.1837 40.1227 45.6178 39.3726 45.7599L39.3619 45.7625V45.7638C38.6171 45.9019 37.8856 45.7253 37.3041 45.3271C36.7213 44.9261 36.2885 44.3021 36.1451 43.5507L36.1438 43.5454ZM49.2568 46.2896C48.2253 47.1658 46.5325 48.2731 44.6712 49.1931C43.1457 49.9472 41.4941 50.5805 39.9766 50.8673C32.7224 52.2414 24.3583 50.7345 24.3344 50.7305L23.4529 50.5739L23.8113 49.7561C23.8126 49.7521 23.956 49.4255 24.207 48.8904L22.1226 47.9146C22.0349 47.8735 21.9925 47.8549 21.9194 47.8018C21.8053 47.7181 21.7163 47.5933 21.6765 47.4433C21.5862 47.1034 21.7721 46.7582 22.0934 46.6719C22.2593 46.6281 22.4279 46.6613 22.5647 46.7503L24.746 47.7712C25.1071 47.045 25.5545 46.1834 26.0537 45.3032L23.2298 43.5772C23.1648 43.5374 23.1316 43.5148 23.0758 43.4604C22.9789 43.3648 22.9099 43.2374 22.8873 43.09C22.8342 42.7421 23.0572 42.4209 23.3865 42.3704C23.5551 42.3452 23.7197 42.3956 23.8458 42.5005L26.6857 44.2371C26.9047 43.8799 27.1304 43.5281 27.3601 43.1882C27.6469 42.7647 27.9482 42.3412 28.2669 41.923L25.9833 39.7311C25.9342 39.6846 25.9077 39.6514 25.8692 39.593C25.7948 39.4801 25.755 39.3407 25.7656 39.192C25.7882 38.8415 26.0749 38.576 26.4069 38.5973C26.5781 38.6092 26.7268 38.6955 26.8277 38.823L29.0435 40.9512C29.8627 39.9793 30.7814 39.0526 31.817 38.2229L29.9902 35.5994C29.9384 35.5238 29.9131 35.4893 29.8786 35.4069C29.8255 35.2795 29.8136 35.1321 29.8521 34.9874C29.9437 34.6475 30.2769 34.4444 30.5969 34.532C30.7615 34.5772 30.8916 34.6913 30.966 34.8374L32.8087 37.486C33.3 37.1475 33.8151 36.8328 34.3554 36.5447C34.9263 36.2407 35.5251 35.9672 36.153 35.7322L35.2489 33.0769C35.2091 32.9601 35.1772 32.8844 35.1666 32.7663C35.1547 32.6335 35.1839 32.4941 35.2595 32.3693C35.4401 32.0693 35.8172 31.967 36.1013 32.1409C36.2473 32.2312 36.3402 32.3759 36.3708 32.5366L37.328 35.3459C38.3768 35.0471 39.5014 34.8507 40.7055 34.7803L40.5953 31.963C40.5913 31.8688 40.5927 31.8104 40.6166 31.7148C40.6471 31.5953 40.7108 31.4824 40.8104 31.3922C41.0693 31.1572 41.4596 31.1678 41.6827 31.4161C41.7968 31.5435 41.8433 31.7081 41.8287 31.8701L41.9415 34.7524C42.9851 34.7644 44.087 34.8692 45.2474 35.0764L45.8899 32.2326C45.9099 32.1476 45.9231 32.0971 45.9656 32.0175C46.0254 31.906 46.1196 31.809 46.2431 31.7453C46.5538 31.586 46.9295 31.6988 47.0808 31.9962C47.1592 32.1502 47.1618 32.3228 47.1047 32.4755L46.4595 35.3299C47.3211 35.5437 48.2425 35.857 49.1427 36.2102L50.1941 33.458C50.2234 33.3823 50.2353 33.3518 50.2738 33.288C50.3495 33.1619 50.469 33.0597 50.6217 33.0066C50.9522 32.8937 51.308 33.0583 51.4143 33.3757C51.47 33.539 51.4488 33.7102 51.3704 33.8523L50.2897 36.6828C51.1713 37.0638 51.9944 37.4555 52.6715 37.7927L53.8863 35.6008C53.962 35.4627 54.0098 35.3525 54.1266 35.2476C54.2116 35.1719 54.3178 35.1162 54.4399 35.0936C54.7825 35.0286 55.1117 35.2423 55.1741 35.5702C55.206 35.7388 55.1608 35.9061 55.0639 36.0362L53.7774 38.3583C54.0337 38.4937 54.2262 38.5973 54.339 38.6583L54.428 38.7061C54.4877 38.7367 54.5422 38.7778 54.5913 38.823C54.9285 39.1429 54.8475 39.6394 54.4572 40.2409C54.2554 40.5515 53.9567 40.9631 53.5982 41.4264C52.337 43.0581 50.3004 45.4041 49.2568 46.2896ZM45.4293 47.1977C46.6175 46.5193 47.6491 45.809 48.3487 45.2155C49.3245 44.3871 51.2695 42.1407 52.4843 40.5675C52.7618 40.2077 52.9994 39.8864 53.1747 39.6302C51.8099 38.9092 48.4151 37.1926 45.8156 36.6244C44.6486 36.3695 43.5467 36.2261 42.5071 36.177C42.7753 36.3177 43.0342 36.473 43.2825 36.6443C44.9075 37.7582 46.1103 39.4947 46.5073 41.5884V41.5911C46.891 43.6117 46.4529 45.5966 45.4293 47.1977ZM31.8887 40.0152C30.5703 41.218 29.4644 42.5934 28.5284 43.9768C27.218 45.9139 26.0564 48.2625 25.4815 49.4865C27.238 49.7401 31.3284 50.2234 35.6539 49.9698C35.306 49.8012 34.9714 49.6074 34.6528 49.3883C33.0278 48.2744 31.8249 46.5379 31.4267 44.4442V44.4428C31.1332 42.8935 31.3231 41.3654 31.8887 40.0152ZM32.8087 44.1826V44.1853C33.134 45.8966 34.1178 47.3159 35.4454 48.2266C36.7731 49.136 38.4432 49.5383 40.1426 49.2184V49.217L40.1479 49.2157C41.8446 48.8944 43.2506 47.9093 44.1521 46.5777C45.0549 45.2434 45.4505 43.5626 45.1266 41.85V41.8473C44.8013 40.136 43.8175 38.7167 42.4899 37.806C41.1622 36.8965 39.4921 36.4943 37.7927 36.8156H37.7874C36.0906 37.1382 34.6847 38.122 33.7832 39.4536C32.8817 40.7892 32.4848 42.4713 32.8087 44.1826Z" fill="black"/>
<path d="M94.7887 30.8087L79.3969 33.2524L81.8406 48.6443L97.2325 46.2006L94.7887 30.8087Z" fill="#EDE4E6"/>
<path d="M88.3304 34.7164C88.584 33.9185 88.9637 33.3423 89.743 33.3423C90.4865 33.3423 90.9021 33.9371 91.1556 34.7164L94.9248 46.4899H93.8733L92.6599 42.7021H86.8249L85.6114 46.4899H84.5599L88.3304 34.7164ZM87.0984 41.81H92.3877L90.2688 35.0138C90.1599 34.6434 90.0152 34.2716 89.743 34.2716C89.4722 34.2716 89.3262 34.6434 89.2173 35.0138L87.0984 41.81Z" fill="#363634" stroke="#363634" stroke-width="1.1999" stroke-miterlimit="10"/>
<path d="M99.8198 35.1241C99.8198 33.9358 100.363 33.4897 101.523 33.4897H104.894C107.213 33.4897 107.865 35.0683 107.865 37.2974C107.865 39.6009 107.304 41.1967 105.04 41.1967H104.259V41.2896L107.956 46.49H106.741L103.317 41.6242C103.172 41.4197 102.972 41.2339 102.972 40.9551V40.732C102.972 40.4532 103.135 40.3045 103.407 40.3045H104.983C106.722 40.3045 106.814 38.949 106.814 37.2961C106.814 35.5502 106.596 34.3806 104.712 34.3806H101.523C100.98 34.3806 100.798 34.5665 100.798 35.1227V46.4873H99.8198V35.1241Z" fill="#363634" stroke="#363634" stroke-width="1.1999" stroke-miterlimit="10"/>
<path d="M116.164 46.49V34.3819H111.943V33.4897H121.363V34.3819H117.142V46.49H116.164Z" fill="#363634" stroke="#363634" stroke-width="1.1999" stroke-miterlimit="10"/>
<path d="M90.3046 66.2704C86.1916 66.2704 85.468 63.2991 85.468 59.7716C85.468 56.2427 86.1371 53.2715 90.4865 53.2715H93.402V54.1637H90.4865C87.2245 54.1637 86.5182 56.2427 86.5182 59.7716C86.5182 63.2991 87.1528 65.3795 90.3232 65.3795H93.6025V66.2717H90.3046V66.2704Z" fill="#363634" stroke="#363634" stroke-width="1.1999" stroke-miterlimit="10"/>
<path d="M101.724 54.4967C101.977 53.6988 102.357 53.1226 103.136 53.1226C103.88 53.1226 104.295 53.7173 104.549 54.4967L108.318 66.2702H107.267L106.053 62.4824H100.218L99.0046 66.2702H97.9531L101.724 54.4967ZM100.492 61.5916H105.781L103.662 54.7954C103.553 54.425 103.408 54.0532 103.136 54.0532C102.865 54.0532 102.719 54.425 102.61 54.7954L100.492 61.5916Z" fill="#363634" stroke="#363634" stroke-width="1.1999" stroke-miterlimit="10"/>
<path d="M121.763 64.9704C121.763 65.844 121.382 66.4189 120.604 66.4189C120.025 66.4189 119.644 66.2144 119.336 65.4722L114.879 54.4967C114.825 54.348 114.699 54.1807 114.498 54.1807C114.371 54.1807 114.19 54.2364 114.19 54.5524V66.2702H113.212V54.4409C113.212 53.1597 114.19 53.1226 114.408 53.1226C115.114 53.1226 115.458 53.493 115.657 53.9948L120.15 65.0262C120.223 65.212 120.349 65.3607 120.548 65.3607C120.783 65.3607 120.783 65.1563 120.783 65.0262V53.2713H121.762V64.9704H121.763Z" fill="#363634" stroke="#363634" stroke-width="1.1999" stroke-miterlimit="10"/>
<path d="M131.134 65.0636C131.207 65.3238 131.314 65.4167 131.442 65.4167C131.569 65.4167 131.677 65.3238 131.75 65.0636L135.191 53.2715H136.224L132.545 65.5654C132.436 65.9372 132.164 66.4191 131.44 66.4191C130.715 66.4191 130.443 65.9358 130.336 65.5654L126.657 53.2715H127.69L131.134 65.0636Z" fill="#363634" stroke="#363634" stroke-width="1.1999" stroke-miterlimit="10"/>
<path d="M143.076 54.4967C143.329 53.6988 143.709 53.1226 144.488 53.1226C145.232 53.1226 145.647 53.7173 145.901 54.4967L149.67 66.2702H148.619L147.405 62.4824H141.57L140.357 66.2702H139.305L143.076 54.4967ZM141.844 61.5916H147.133L145.014 54.7954C144.905 54.425 144.76 54.0532 144.488 54.0532C144.217 54.0532 144.071 54.425 143.963 54.7954L141.844 61.5916Z" fill="#363634" stroke="#363634" stroke-width="1.1999" stroke-miterlimit="10"/>
<path d="M154.22 65.3795H159.201C159.962 65.3795 160.688 64.9706 160.688 63.1518C160.688 62.2981 160.361 61.852 159.058 61.0528L156.177 59.2698C154.927 58.5077 154.021 57.8399 154.021 56.2056C154.021 54.3482 154.892 53.2715 156.883 53.2715H161.141V54.1637H156.883C155.561 54.1637 155.072 54.7199 155.072 56.2069C155.072 57.042 155.29 57.5067 156.394 58.2302L159.149 60.0132C160.507 60.8855 161.74 61.4431 161.74 63.1518C161.74 64.7489 161.161 66.2717 159.202 66.2717H154.221V65.3795H154.22Z" fill="#363634" stroke="#363634" stroke-width="1.1999" stroke-miterlimit="10"/>
<path d="M92.4289 18.5552C92.5364 19.069 92.7873 19.1062 92.8949 19.1062C93.0024 19.1062 93.2533 19.069 93.3609 18.5552L96.7318 1.10742H105.049L99.2051 22.9643C98.4882 25.6833 96.838 27.1159 92.8949 27.1159C88.9505 27.1159 87.3015 25.6462 86.5846 22.9643L80.7404 1.10742H89.0593L92.4289 18.5552Z" fill="#EB8E51"/>
<path d="M109.927 26.8211V1.10742H118.031V26.8211H109.927Z" fill="#EB8E51"/>
<path d="M130.041 3.93511C130.937 1.10724 132.91 0.8125 135.778 0.8125C138.647 0.8125 140.618 1.10724 141.514 3.93511L148.649 26.8209H140.115L138.86 21.5316H132.693L131.439 26.8209H122.905L130.041 3.93511ZM133.698 15.8732H137.858L136.102 9.15007C136.066 8.92968 135.958 8.5991 135.779 8.5991C135.6 8.5991 135.492 8.92968 135.456 9.15007L133.698 15.8732Z" fill="#EB8E51"/>
<path d="M152.447 5.14743C152.447 2.57579 153.881 1.10742 156.392 1.10742H168.044C173.781 1.10742 174.498 4.34022 174.498 9.84992C174.498 13.8913 173.996 18.9973 169.693 18.9973H169.478V19.1447L175 26.8224H166.324L162.845 20.872C162.057 19.5496 161.554 18.4849 161.554 17.0152V16.0978C161.554 13.8939 161.948 13.1956 164.099 13.1956H164.242C166.393 13.1956 166.751 12.4972 166.751 10.2934C166.751 8.08947 166.393 7.50133 164.242 7.50133H161.769C160.692 7.50133 160.19 8.01512 160.19 9.11706V26.8224H152.446V5.14743H152.447Z" fill="#EB8E51"/>
</g>
<defs>
<clipPath id="clip0_183_346">
<rect width="175" height="67.2329" fill="white"/>
</clipPath>
</defs>
</svg>
